HIERARCHY
ROOT Hips
{
	OFFSET 39.876801 -4.248706 98.827499
	CHANNELS 6 Xposition Yposition Zposition Xrotation Yrotation Zrotation
	JOINT spine
	{
		OFFSET 0.000000 -0.477354 8.301041
		CHANNELS 3 Xrotation Yrotation Zrotation
		JOINT spine1
		{
			OFFSET 0.000000 -0.000001 10.456497
			CHANNELS 3 Xrotation Yrotation Zrotation
			JOINT spine2
			{
				OFFSET 0.000000 -0.000002 10.019203
				CHANNELS 3 Xrotation Yrotation Zrotation
				JOINT Neck
				{
					OFFSET 0.000000 -1.226414 25.723503
					CHANNELS 3 Xrotation Yrotation Zrotation
					JOINT Head
					{
						OFFSET 0.000000 -0.000001 7.771744
						CHANNELS 3 Xrotation Yrotation Zrotation
						End Site
						{
							OFFSET 0.000000 6.203937 18.811996
						}
					}
				}
				JOINT RightShoulder
				{
					OFFSET -4.218800 0.587438 10.820000
					CHANNELS 3 Xrotation Yrotation Zrotation
					JOINT RightArm
					{
						OFFSET 0.000000 -0.000002 14.191406
						CHANNELS 3 Xrotation Yrotation Zrotation
						JOINT RightArmRoll
						{
							OFFSET 0.000000 -0.000001 7.164078
							CHANNELS 3 Xrotation Yrotation Zrotation
							JOINT RightForeArm
							{
								OFFSET 0.000000 -0.000003 20.866501
								CHANNELS 3 Xrotation Yrotation Zrotation
								JOINT RightForeArmRoll
								{
									OFFSET 0.000000 -0.000001 8.039215
									CHANNELS 3 Xrotation Yrotation Zrotation
									JOINT RightHand
									{
										OFFSET 0.000000 -0.000003 16.132996
										CHANNELS 3 Xrotation Yrotation Zrotation
										End Site
										{
											OFFSET 0.000000 0.000000 0.100006
										}
									}
								}
							}
						}
					}
				}
				JOINT LeftShoulder
				{
					OFFSET 4.218800 0.587438 10.820000
					CHANNELS 3 Xrotation Yrotation Zrotation
					JOINT LeftArm
					{
						OFFSET 0.000000 -0.000002 14.191406
						CHANNELS 3 Xrotation Yrotation Zrotation
						JOINT LeftArmRoll
						{
							OFFSET 0.000000 -0.000001 7.164078
							CHANNELS 3 Xrotation Yrotation Zrotation
							JOINT LeftForeArm
							{
								OFFSET 0.000000 -0.000003 20.866501
								CHANNELS 3 Xrotation Yrotation Zrotation
								JOINT LeftForeArmRoll
								{
									OFFSET 0.000000 -0.000001 8.039215
									CHANNELS 3 Xrotation Yrotation Zrotation
									JOINT LeftHand
									{
										OFFSET 0.000000 -0.000003 16.132996
										CHANNELS 3 Xrotation Yrotation Zrotation
										End Site
										{
											OFFSET 0.000000 0.000000 0.100006
										}
									}
								}
							}
						}
					}
				}
			}
		}
	}
	JOINT RightUpLeg
	{
		OFFSET -7.357731 1.131820 -1.349213
		CHANNELS 3 Xrotation Yrotation Zrotation
		JOINT RightUpLegRoll
		{
			OFFSET 0.000000 -0.000003 18.916801
			CHANNELS 3 Xrotation Yrotation Zrotation
			JOINT RightLeg
			{
				OFFSET 0.000000 0.000004 -23.425598
				CHANNELS 3 Xrotation Yrotation Zrotation
				JOINT RightLegRoll
				{
					OFFSET 0.000000 -0.000004 23.502296
					CHANNELS 3 Xrotation Yrotation Zrotation
					JOINT RightFoot
					{
						OFFSET 0.000000 -0.000003 19.561707
						CHANNELS 3 Xrotation Yrotation Zrotation
						JOINT RightToeBase
						{
							OFFSET 0.000000 -0.000003 16.352600
							CHANNELS 3 Xrotation Yrotation Zrotation
							End Site
							{
								OFFSET 0.006931 0.912835 7.919434
							}
						}
					}
				}
			}
		}
	}
	JOINT LeftUpLeg
	{
		OFFSET 7.357731 1.131820 -1.349213
		CHANNELS 3 Xrotation Yrotation Zrotation
		JOINT LeftUpLegRoll
		{
			OFFSET 0.000000 -0.000003 18.916901
			CHANNELS 3 Xrotation Yrotation Zrotation
			JOINT LeftLeg
			{
				OFFSET 0.000000 -0.000004 23.425507
				CHANNELS 3 Xrotation Yrotation Zrotation
				JOINT LeftLegRoll
				{
					OFFSET 0.000000 -0.000004 23.719498
					CHANNELS 3 Xrotation Yrotation Zrotation
					JOINT LeftFoot
					{
						OFFSET 0.000000 -0.000003 19.344406
						CHANNELS 3 Xrotation Yrotation Zrotation
						JOINT LeftToeBase
						{
							OFFSET 0.000000 -0.000003 16.352600
							CHANNELS 3 Xrotation Yrotation Zrotation
							End Site
							{
								OFFSET -0.031063 0.912836 7.919434
							}
						}
					}
				}
			}
		}
	}
}
MOTION
Frames: 4
Frame Time: 0.041667
40.176403 -4.433066 98.895210 -2.518830 -1.218622 1.333346 -1.473531 -0.082434 0.059311 1.069064 -0.153978 0.117852 2.714140 -0.152566 0.119830 23.698272 3.047847 -1.049046 -6.881747 -0.538960 -0.870085 -4.180193 -72.305858 -6.164340 -72.105638 -114.518510 -39.261785 0.000004 0.000000 0.000002 0.006668 -1.382680 0.690262 0.000003 -0.000002 -3.084789 -5.000166 -7.999929 0.000024 3.864436 67.306316 -3.299778 -49.511109 106.125417 26.899667 -0.000001 0.000006 0.000004 5.292563 5.833041 0.467739 -0.000000 -0.000001 3.000001 -5.000214 7.999261 -0.000107 0.899973 -174.907621 1.515969 -179.999991 0.000005 -1.107005 173.994370 -3.494766 -0.633433 0.000001 0.000002 0.071273 69.339199 6.883349 2.131250 25.456957 -7.355615 -0.000000 2.278587 176.594691 1.224214 -0.000005 -0.000004 -1.148680 -6.674597 3.500164 0.826032 0.000002 -0.000001 -0.081001 67.919729 -6.932651 -2.093802 25.456957 7.355614 -0.000000 
40.179699 -4.436622 98.886612 -2.521930 -1.218040 1.345326 -1.472981 -0.082862 0.058257 1.069254 -0.155649 0.115810 2.714320 -0.154262 0.117797 23.706443 3.063165 -1.055812 -6.895702 -0.551093 -0.875381 -4.229703 -72.271721 -6.215727 -72.094047 -114.496449 -39.070957 0.000002 0.000001 0.000001 0.005828 -1.215011 0.718497 0.000002 -0.000002 -3.084779 -5.000164 -7.999930 0.000024 3.797186 67.328139 -3.221696 -49.599420 106.113286 26.806110 -0.000001 0.000006 0.000006 5.210286 5.693545 0.478365 0.000001 -0.000002 2.999998 -5.000215 7.999261 -0.000108 0.913418 -174.907648 1.521432 -179.999991 0.000005 -1.107005 174.005107 -3.500799 -0.633404 0.000001 0.000002 0.071273 69.333161 6.883308 2.131318 25.456957 -7.355617 0.000001 2.271500 176.591659 1.220396 -0.000005 -0.000005 -1.148680 -6.696356 3.501439 0.826815 0.000002 -0.000002 -0.081001 67.925207 -6.932671 -2.093760 25.456953 7.355613 -0.000000 
40.181900 -4.427125 98.897011 -2.525128 -1.217367 1.357418 -1.472363 -0.083293 0.057129 1.069534 -0.157383 0.113669 2.714611 -0.156021 0.115668 23.713223 3.078864 -1.062540 -6.908584 -0.563587 -0.880639 -4.279617 -72.236572 -6.267468 -72.074533 -114.475337 -38.872761 0.000004 0.000001 0.000004 0.005002 -1.047330 0.746584 0.000004 -0.000002 -3.084772 -5.000166 -7.999927 0.000023 3.727618 67.350200 -3.140981 -49.683520 106.102795 26.708007 -0.000003 0.000004 0.000004 5.128477 5.553603 0.488574 0.000002 -0.000001 2.999999 -5.000215 7.999262 -0.000109 0.927234 -174.908659 1.527012 -179.999991 0.000005 -1.107005 174.016309 -3.507827 -0.633447 0.000002 0.000002 0.071273 69.326932 6.883331 2.131311 25.456955 -7.355616 -0.000001 2.264101 176.589664 1.216397 -0.000005 -0.000004 -1.148680 -6.718951 3.502827 0.827605 0.000002 -0.000001 -0.081001 67.930883 -6.932672 -2.093805 25.456957 7.355614 -0.000001 
40.178501 -4.432877 98.883202 -2.528398 -1.216635 1.369570 -1.471703 -0.083726 0.055948 1.069905 -0.159159 0.111458 2.714981 -0.157824 0.113468 23.718914 3.094843 -1.069242 -6.920722 -0.576334 -0.885870 -4.329733 -72.200700 -6.319382 -72.049616 -114.454805 -38.669666 0.000002 0.000000 0.000003 0.004189 -0.879655 0.774571 0.000003 -0.000002 -3.084751 -5.000164 -7.999929 0.000022 3.656368 67.372460 -3.058361 -49.765353 106.093048 26.607601 -0.000002 0.000004 0.000003 5.047018 5.413307 0.498377 0.000001 -0.000001 3.000001 -5.000215 7.999262 -0.000110 0.941310 -174.909684 1.532696 -179.999991 0.000005 -1.107005 174.027852 -3.514872 -0.633469 0.000002 0.000002 0.071273 69.320587 6.883310 2.131300 25.456959 -7.355616 0.000000 2.256475 176.586645 1.212213 -0.000005 -0.000004 -1.148680 -6.742133 3.504289 0.828399 0.000002 -0.000001 -0.081001 67.936668 -6.932678 -2.093741 25.456957 7.355613 -0.000001 
